<svg xmlns="http://www.w3.org/2000/svg" width="320" height="250" viewBox="0 0 320 250">
  <rect width="320" height="250" fill="#0f0f0f"/>

  <!-- Gold accent bar -->
  <rect x="0" y="0" width="320" height="4" fill="#F5C842"/>

  <!-- Paper rows (simulating the feed) -->
  <!-- Row 1 -->
  <rect x="20" y="30" width="18" height="10" rx="2" fill="#1a1a1a"/>
  <text x="20" y="39" font-family="monospace" font-size="9" fill="#F5C842" font-weight="bold">01</text>
  <rect x="44" y="30" width="200" height="7" rx="1" fill="#2a2a2a"/>
  <rect x="44" y="40" width="140" height="5" rx="1" fill="#1e1e1e"/>
  <rect x="252" y="30" width="32" height="12" rx="2" fill="#0d2e1a"/>
  <text x="255" y="40" font-family="monospace" font-size="8" fill="#4caf50">87</text>

  <!-- Row 2 -->
  <rect x="20" y="60" width="18" height="10" rx="2" fill="#1a1a1a"/>
  <text x="20" y="69" font-family="monospace" font-size="9" fill="#F5C842" font-weight="bold">02</text>
  <rect x="44" y="60" width="180" height="7" rx="1" fill="#2a2a2a"/>
  <rect x="44" y="70" width="120" height="5" rx="1" fill="#1e1e1e"/>
  <rect x="252" y="60" width="32" height="12" rx="2" fill="#0d1a2e"/>
  <text x="255" y="70" font-family="monospace" font-size="8" fill="#42a5f5">74</text>

  <!-- Row 3 -->
  <rect x="20" y="90" width="18" height="10" rx="2" fill="#1a1a1a"/>
  <text x="20" y="99" font-family="monospace" font-size="9" fill="#F5C842" font-weight="bold">03</text>
  <rect x="44" y="90" width="210" height="7" rx="1" fill="#2a2a2a"/>
  <rect x="44" y="100" width="160" height="5" rx="1" fill="#1e1e1e"/>
  <rect x="252" y="90" width="32" height="12" rx="2" fill="#1a0d1a"/>
  <text x="255" y="100" font-family="monospace" font-size="8" fill="#e040fb">71</text>

  <!-- Row 4 -->
  <rect x="20" y="120" width="18" height="10" rx="2" fill="#1a1a1a"/>
  <text x="20" y="129" font-family="monospace" font-size="9" fill="#F5C842" font-weight="bold">04</text>
  <rect x="44" y="120" width="160" height="7" rx="1" fill="#2a2a2a"/>
  <rect x="44" y="130" width="100" height="5" rx="1" fill="#1e1e1e"/>
  <rect x="252" y="120" width="32" height="12" rx="2" fill="#0d1a2e"/>
  <text x="255" y="130" font-family="monospace" font-size="8" fill="#42a5f5">65</text>

  <!-- Row 5 -->
  <rect x="20" y="150" width="18" height="10" rx="2" fill="#1a1a1a"/>
  <text x="20" y="159" font-family="monospace" font-size="9" fill="#F5C842" font-weight="bold">05</text>
  <rect x="44" y="150" width="190" height="7" rx="1" fill="#2a2a2a"/>
  <rect x="44" y="160" width="130" height="5" rx="1" fill="#1e1e1e"/>
  <rect x="252" y="150" width="32" height="12" rx="2" fill="#2e1e0d"/>
  <text x="255" y="160" font-family="monospace" font-size="8" fill="#ffb300">58</text>

  <!-- Score bars at bottom -->
  <text x="20" y="198" font-family="monospace" font-size="7" fill="#555">citation vel</text>
  <rect x="80" y="190" width="60" height="4" rx="2" fill="#1a1a1a"/>
  <rect x="80" y="190" width="48" height="4" rx="2" fill="#F5C842" opacity="0.8"/>

  <text x="148" y="198" font-family="monospace" font-size="7" fill="#555">altmetric</text>
  <rect x="198" y="190" width="60" height="4" rx="2" fill="#1a1a1a"/>
  <rect x="198" y="190" width="38" height="4" rx="2" fill="#F5C842" opacity="0.6"/>

  <text x="20" y="218" font-family="monospace" font-size="7" fill="#555">cross-domain</text>
  <rect x="80" y="210" width="60" height="4" rx="2" fill="#1a1a1a"/>
  <rect x="80" y="210" width="55" height="4" rx="2" fill="#F5C842" opacity="0.9"/>

  <text x="148" y="218" font-family="monospace" font-size="7" fill="#555">author rep</text>
  <rect x="198" y="210" width="60" height="4" rx="2" fill="#1a1a1a"/>
  <rect x="198" y="210" width="30" height="4" rx="2" fill="#F5C842" opacity="0.5"/>

  <!-- Separator line -->
  <line x1="20" y1="178" x2="300" y2="178" stroke="#222" stroke-width="1"/>

  <!-- Label -->
  <text x="20" y="240" font-family="monospace" font-size="8" fill="#444">daily · ranked · cross-domain</text>
</svg>
